<?xml version="1.0" ?><!DOCTYPE svg  PUBLIC '-//W3C//DTD SVG 1.1//EN'  'http://www.w3.org/Graphics/SVG/1.1/DTD/svg11.dtd'><svg enable-background="new 0 0 512 512" height="512px" id="Layer_1" version="1.1" viewBox="0 0 512 512" width="512px" xml:space="preserve" xmlns="http://www.w3.org/2000/svg" xmlns:xlink="http://www.w3.org/1999/xlink"><g><path d="M256.101,228.794c2.37,0,4.689-0.96,6.36-2.641c1.68-1.67,2.64-3.989,2.64-6.359s-0.96-4.69-2.64-6.37   c-1.671-1.67-3.99-2.63-6.36-2.63s-4.69,0.96-6.37,2.63c-1.67,1.68-2.63,4-2.63,6.37s0.96,4.689,2.63,6.359   C251.41,227.834,253.73,228.794,256.101,228.794z"/><path d="M256.101,272.754c2.37,0,4.689-0.96,6.36-2.63c1.68-1.681,2.64-4,2.64-6.37s-0.96-4.69-2.64-6.36   c-1.671-1.68-3.99-2.64-6.36-2.64s-4.69,0.96-6.37,2.64c-1.67,1.67-2.63,3.99-2.63,6.36s0.96,4.689,2.63,6.37   C251.41,271.794,253.73,272.754,256.101,272.754z"/><path d="M256.101,316.724c2.36,0,4.68-0.96,6.36-2.64c1.68-1.67,2.64-3.99,2.64-6.36s-0.96-4.689-2.64-6.37   c-1.671-1.67-3.99-2.63-6.36-2.63s-4.69,0.96-6.37,2.63c-1.67,1.681-2.63,4-2.63,6.37s0.96,4.69,2.63,6.36   C251.41,315.764,253.73,316.724,256.101,316.724z"/><path d="M365.2,371.063c-2.37,0-4.689,0.96-6.359,2.641c-1.681,1.67-2.641,3.989-2.641,6.359s0.96,4.69,2.641,6.37   c1.67,1.67,3.989,2.63,6.359,2.63s4.69-0.96,6.36-2.63c1.68-1.68,2.64-4,2.64-6.37s-0.96-4.689-2.64-6.359   C369.891,372.023,367.57,371.063,365.2,371.063z"/><path d="M256.101,371.063c-2.37,0-4.69,0.96-6.36,2.641c-1.68,1.67-2.64,3.989-2.64,6.359s0.96,4.69,2.64,6.37   c1.67,1.67,3.99,2.63,6.36,2.63s4.689-0.96,6.36-2.63c1.68-1.68,2.64-4,2.64-6.37s-0.96-4.689-2.64-6.359   C260.79,372.023,258.471,371.063,256.101,371.063z"/><path d="M147,371.063c-2.369,0-4.689,0.96-6.359,2.641c-1.68,1.67-2.641,3.989-2.641,6.359s0.961,4.69,2.641,6.37   c1.67,1.67,3.99,2.63,6.359,2.63c2.37,0,4.69-0.96,6.36-2.63c1.68-1.68,2.64-4,2.64-6.37s-0.96-4.689-2.64-6.359   C151.69,372.023,149.37,371.063,147,371.063z"/><path d="M360.792,96.416c-6.308,0-12.609,0.521-18.73,1.548c-4.284,0.719-7.442,4.395-7.51,8.737   c-0.066,4.343,2.978,8.114,7.237,8.965c29.8,5.948,51.429,32.364,51.429,62.811c0,16.941-6.588,32.878-18.284,44.791   c-23.43-21.366-52.237-36.113-83.315-42.481v-13.335c0-4.971-4.029-9-9-9h-53.034c-4.971,0-9,4.029-9,9v13.335   c-31.126,6.378-59.975,21.161-83.425,42.579c-11.755-11.923-18.377-27.901-18.377-44.889c0-30.446,21.629-56.862,51.429-62.811   c4.26-0.851,7.304-4.622,7.237-8.965c-0.067-4.343-3.226-8.019-7.51-8.737c-6.121-1.027-12.423-1.548-18.73-1.548   c-62.694,0-113.699,51.004-113.699,113.697c0,19.974,5.256,39.622,15.2,56.821c8.49,14.685,20.227,27.338,34.184,36.929   c-3.867,13.174-6.201,26.825-6.91,40.686h-0.44c-4.971,0-9,4.029-9,9v53.035c0,4.971,4.029,9,9,9h353.117c4.971,0,9-4.029,9-9   v-53.035c0-4.971-4.029-9-9-9h-0.44c-0.711-13.899-3.056-27.59-6.942-40.798c13.884-9.577,25.559-22.19,34.015-36.816   c9.944-17.199,15.2-36.848,15.2-56.821C474.491,147.42,423.486,96.416,360.792,96.416z M238.584,176.451h35.034v11.842v156.256   h-35.034V188.293V176.451z M55.509,210.113c0-44.884,31.063-82.649,72.818-92.934c-17.018,15.188-27.545,37.263-27.545,61.297   c0,21.799,8.5,42.309,23.604,57.589c-13.183,14.762-23.877,31.76-31.45,49.977C69.316,268.008,55.509,240.343,55.509,210.113z    M112.868,285.547c7.69-16.108,18.129-30.971,30.752-43.653c0.336-0.338,0.632-0.706,0.907-1.087   c20.419-20.194,46.475-34.9,76.057-41.617v145.359H97.992C99.152,323.567,104.344,303.628,112.868,285.547z M423.659,397.584   H88.542v-35.035h0.202h140.84h53.034h140.839h0.202V397.584z M291.618,344.549V199.189c29.293,6.65,55.129,21.135,75.457,41.024   c0.366,0.604,0.798,1.171,1.305,1.68c17.015,17.095,30.072,38.146,37.763,60.879c0.127,0.375,0.283,0.734,0.456,1.085   c4.219,12.927,6.83,26.572,7.61,40.691H291.618z M419.064,286.042c-2.113-5.082-4.477-10.064-7.062-14.935   c-0.091-0.172-0.183-0.344-0.274-0.516c-0.434-0.811-0.873-1.618-1.32-2.423c-0.257-0.465-0.516-0.929-0.777-1.392   c-0.28-0.494-0.563-0.986-0.848-1.477c-0.413-0.715-0.83-1.428-1.254-2.138c-0.128-0.214-0.258-0.428-0.388-0.642   c-5.075-8.422-10.864-16.452-17.35-23.983c-0.718-0.833-1.446-1.655-2.178-2.473c15.104-15.28,23.604-35.79,23.604-57.589   c0-24.034-10.527-46.109-27.545-61.297c41.756,10.284,72.818,48.05,72.818,92.934C456.491,240.343,442.684,268.008,419.064,286.042   z"/></g></svg>